<svg width="1200" height="630" viewBox="0 0 1200 630" fill="none" xmlns="http://www.w3.org/2000/svg">
  <rect width="1200" height="630" fill="#F5F8FC"/>
  <circle cx="1032" cy="92" r="220" fill="url(#paint0_radial_2_2)" fill-opacity="0.9"/>
  <circle cx="170" cy="486" r="180" fill="url(#paint1_radial_2_2)" fill-opacity="0.9"/>
  <rect x="72" y="66" width="1056" height="498" rx="40" fill="white"/>
  <rect x="72" y="66" width="1056" height="498" rx="40" stroke="#E1EAF5" stroke-width="2"/>
  <rect x="116" y="112" width="92" height="92" rx="28" fill="url(#paint2_linear_2_2)"/>
  <path d="M150 150.5C150 143.596 155.596 138 162.5 138H188V180H162.5C155.596 180 150 174.404 150 167.5V150.5Z" stroke="white" stroke-width="5" stroke-linejoin="round"/>
  <path d="M162 154H176.5" stroke="white" stroke-width="5" stroke-linecap="round"/>
  <path d="M162 164.5H176.5" stroke="white" stroke-width="5" stroke-linecap="round"/>
  <text x="244" y="156" fill="#0D2A53" font-family="Pretendard, Noto Sans KR, sans-serif" font-size="54" font-weight="800">
    의대 길잡이
  </text>
  <text x="244" y="214" fill="#4A5B74" font-family="Pretendard, Noto Sans KR, sans-serif" font-size="28" font-weight="600">
    의대생 선배가 알려주는 수험 공부의 방향
  </text>
  <text x="116" y="312" fill="#07152B" font-family="Pretendard, Noto Sans KR, sans-serif" font-size="74" font-weight="800">
    막막한 입시,
  </text>
  <text x="116" y="394" fill="#07152B" font-family="Pretendard, Noto Sans KR, sans-serif" font-size="74" font-weight="800">
    제대로 된 공부 방향부터.
  </text>
  <text x="116" y="468" fill="#5F6E84" font-family="Pretendard, Noto Sans KR, sans-serif" font-size="30" font-weight="500">
    국어 · 수학 · 영어 · 탐구 공부법부터 실전형 자료와 인사이트까지.
  </text>
  <text x="116" y="510" fill="#5F6E84" font-family="Pretendard, Noto Sans KR, sans-serif" font-size="30" font-weight="500">
    수험생의 시행착오를 줄이고 효율적인 공부 방향을 제시하는 브랜드.
  </text>
  <rect x="796" y="214" width="268" height="144" rx="26" fill="url(#paint3_linear_2_2)"/>
  <rect x="822" y="242" width="144" height="16" rx="8" fill="#C6D9F4"/>
  <rect x="822" y="276" width="194" height="16" rx="8" fill="#A9C5EE"/>
  <rect x="822" y="310" width="166" height="16" rx="8" fill="#92B6E9"/>
  <rect x="760" y="388" width="174" height="122" rx="24" fill="#FFFFFF" stroke="#E1EAF5" stroke-width="2"/>
  <rect x="788" y="420" width="92" height="13" rx="6.5" fill="#DCE9FB"/>
  <rect x="788" y="447" width="116" height="13" rx="6.5" fill="#C7DDF8"/>
  <rect x="950" y="388" width="128" height="122" rx="24" fill="#EEF4FB" stroke="#E1EAF5" stroke-width="2"/>
  <text x="976" y="434" fill="#0D2A53" font-family="Pretendard, Noto Sans KR, sans-serif" font-size="22" font-weight="700">
    후기
  </text>
  <text x="976" y="468" fill="#43546E" font-family="Pretendard, Noto Sans KR, sans-serif" font-size="18" font-weight="500">
    막연했던
  </text>
  <text x="976" y="493" fill="#43546E" font-family="Pretendard, Noto Sans KR, sans-serif" font-size="18" font-weight="500">
    공부 방향이
  </text>
  <defs>
    <radialGradient id="paint0_radial_2_2" cx="0" cy="0" r="1" gradientUnits="userSpaceOnUse" gradientTransform="translate(1032 92) rotate(90) scale(220)">
      <stop stop-color="#D8E6FA"/>
      <stop offset="1" stop-color="#D8E6FA" stop-opacity="0"/>
    </radialGradient>
    <radialGradient id="paint1_radial_2_2" cx="0" cy="0" r="1" gradientUnits="userSpaceOnUse" gradientTransform="translate(170 486) rotate(90) scale(180)">
      <stop stop-color="#E8F1FD"/>
      <stop offset="1" stop-color="#E8F1FD" stop-opacity="0"/>
    </radialGradient>
    <linearGradient id="paint2_linear_2_2" x1="126" y1="120" x2="198" y2="210" gradientUnits="userSpaceOnUse">
      <stop stop-color="#0B2346"/>
      <stop offset="0.55" stop-color="#123562"/>
      <stop offset="1" stop-color="#275081"/>
    </linearGradient>
    <linearGradient id="paint3_linear_2_2" x1="818" y1="214" x2="1048" y2="358" gradientUnits="userSpaceOnUse">
      <stop stop-color="#0B2346"/>
      <stop offset="0.55" stop-color="#123562"/>
      <stop offset="1" stop-color="#275081"/>
    </linearGradient>
  </defs>
</svg>
